<?xml version="1.0" encoding="utf-8"?>
<!-- Generator: Adobe Illustrator 22.1.0, SVG Export Plug-In . SVG Version: 6.00 Build 0)  -->
<svg version="1.1"
	 id="svg4202" inkscape:version="0.91 r13725" sodipodi:docname="logo.svg" xmlns:cc="http://creativecommons.org/ns#" xmlns:dc="http://purl.org/dc/elements/1.1/" xmlns:inkscape="http://www.inkscape.org/namespaces/inkscape" xmlns:osb="http://www.openswatchbook.org/uri/2009/osb" xmlns:rdf="http://www.w3.org/1999/02/22-rdf-syntax-ns#" xmlns:sodipodi="http://sodipodi.sourceforge.net/DTD/sodipodi-0.dtd" xmlns:svg="http://www.w3.org/2000/svg"
	 xmlns="http://www.w3.org/2000/svg" xmlns:xlink="http://www.w3.org/1999/xlink" x="0px" y="0px" viewBox="0 0 1024 1024"
	 style="enable-background:new 0 0 1024 1024;" xml:space="preserve">
<style type="text/css">
	.st0{opacity:0.62;fill:#FBED21;enable-background:new    ;}
	.st1{fill:#B2E198;fill-opacity:0.9412;}
	.st2{fill:#04A171;fill-opacity:0.4313;}
	.st3{fill:#66585C;}
	.st4{fill:#584A4E;fill-opacity:0.9412;}
	.st5{fill:#584A4E;}
	.st6{fill:#243438;}
	.st7{fill:#089083;}
	.st8{fill:#02786A;}
	.st9{fill:#34484C;}
</style>
<sodipodi:namedview  bordercolor="#666666" borderopacity="1" gridtolerance="10" guidetolerance="10" id="namedview4224" inkscape:current-layer="svg4202" inkscape:cx="31.931295" inkscape:cy="40.895879" inkscape:pageopacity="0" inkscape:pageshadow="2" inkscape:window-height="826" inkscape:window-maximized="0" inkscape:window-width="1442" inkscape:window-x="0" inkscape:window-y="0" inkscape:zoom="10.041015" objecttolerance="10" pagecolor="#ffffff" showgrid="false">
	</sodipodi:namedview>
<g id="g4204">
	<path id="path4206" class="st0" d="M627,799.2c103.4-103.3,94.1-279.8-20.5-394.4c-114.6-114.6-291-123.8-394.4-20.5
		C108.8,487.5-52.9,835,61.7,949.6C176.4,1064.3,523.8,902.5,627,799.2"/>
	<path id="path4208" class="st0" d="M657.2,693.7c85.8-85.8,78.2-232.4-17-327.6c-95.2-95.2-241.8-102.9-327.6-17
		c-85.8,85.7-220.1,374.4-124.9,469.5C282.9,913.8,571.5,779.4,657.2,693.7"/>
</g>
<path id="path4210" class="st1" d="M446,590.7c97.7,97.7,176.7,200.7,233.2,298.5c7.9-49.3,41-126.8,140.8-289.6
	c198.3-323.3,218.7-554.3,197-575.9c-0.6-0.7-1.3-1.4-2-2c-0.7-0.7-1.4-1.4-2.1-2c-21.6-21.8-252.5-1.2-575.9,197
	c-162.7,99.8-240.4,132.8-289.6,140.8C245.3,414,348.4,493.1,446,590.7"/>
<path id="path4212" class="st2" d="M952.4,14.2C860.5,22,673.8,71.6,437,216.8c-162.7,99.8-240.4,132.8-289.6,140.8
	c97.8,56.5,200.9,135.6,298.5,233.2c4.1,4.1,7.9,8.3,12,12.4C427.9,328.8,730,146.8,952.4,14.2"/>
<path id="path4214" class="st3" d="M538.3,856.7c49.9,49.9,90.4,102.6,119.2,152.6c4-25.2,20.9-64.9,71.9-148.1
	C830.8,696,841.3,578,830.2,566.9c-0.3-0.3-0.7-0.7-1-1s-0.7-0.7-1-1c-11-11.1-129.1-0.6-294.3,100.7
	c-83.2,51-122.9,67.9-148.1,71.9C435.7,766.3,488.4,806.8,538.3,856.7"/>
<path id="path4216" class="st4" d="M668.6,719.8c-42.5,52.6-75,119.5-83.5,188.1c28.7,33.9,53.3,68.2,72.5,101.4
	c4-25.2,20.9-64.9,71.9-148.1c82.5-134.5,104.8-237.8,104.2-277.4C778.9,629.5,714.2,663.2,668.6,719.8"/>
<path id="path4218" class="st3" d="M152.6,469.2c49.9,49.9,90.3,102.6,119.2,152.6c4-25.2,20.9-64.9,71.9-148.1
	C445,308.5,455.5,190.4,444.4,179.4c-0.3-0.4-0.7-0.7-1.1-1c-0.4-0.4-0.7-0.7-1-1c-11-11.1-129.1-0.6-294.3,100.7
	C64.9,329.1,25.2,346-0.1,350C50,378.8,102.7,419.3,152.6,469.2"/>
<path id="path4220" class="st5" d="M205.9,356.5c89.7-43,183.4-91.5,239.2-175.9c-0.3-0.4-0.4-0.9-0.4-0.9c-0.6-0.6-0.9-0.9-1.3-1.3
	c-0.4-0.4-0.7-0.7-1-1c-11-11.1-129.1-0.6-294.3,100.7C64.9,329.1,25.2,346-0.1,350c33.7,19.4,68.6,44.5,103.1,73.9
	C133.5,397.5,167.6,374.8,205.9,356.5"/>
<path id="path4222" class="st6" d="M850.2,190.2c27.6,23.8,50.3,49.4,67,74c1.1-13.1,8.3-34.1,31.5-78.8
	c46-88.7,46.9-149.9,40.8-155.1c-0.1-0.2-0.4-0.4-0.6-0.5c-0.1-0.2-0.4-0.4-0.6-0.5c-6.1-5.3-66.4,4.5-147.7,62.7
	c-40.8,29.4-60.6,39.5-73.4,42.5C794.1,147.5,822.8,166.4,850.2,190.2"/>
<g id="g4344" transform="matrix(0.30468604,0.25916484,-0.25916484,0.30468604,39.794961,4.1668297)">
	<path id="path4346" inkscape:connector-curvature="0" class="st7" d="M1894.7-811.4l-104.9,0H1773h-16.8l-104.9,0
		c0,0-161.1-11.6-389.7,321.3c0,0,78.7,154.8,168.7,135.5c0,0,59.9-58.6,59.9,1.7L1456.4,9.3c0,0-15,127.8,67.4,127.8
		c0,0,169.8,68.6,249.2,39.4c79.5,29.2,249.1-39.4,249.1-39.4c82.5,0,67.5-127.8,67.5-127.8l-33.7-362.2c0-60.3,59.9-1.7,59.9-1.7
		c90,19.3,168.6-135.5,168.6-135.5C2055.9-823,1894.7-811.4,1894.7-811.4"/>
	<g id="g4348">
		<path id="path4350" inkscape:connector-curvature="0" class="st8" d="M1894.7-811.4l-33.4,0c26.7,0.9,178.4,19.7,385.6,321.3
			c0,0-58.5,115-132.3,134.3c0.7,0.6,1.2,1.2,1.2,1.2c90,19.3,168.7-135.5,168.7-135.5C2056-823,1894.8-811.4,1894.7-811.4"/>
		<path id="path4352" inkscape:connector-curvature="0" class="st8" d="M2054.2-352.8c0-7.7,0.9-13.4,2.6-17.5
			c-17.5-11.7-40.3-19.6-40.3,17.5l33.7,362.3c0,0,15,127.7-67.4,127.7c0,0-98.5,39.7-180.6,45.8c85.6,7.7,218.1-45.8,218.1-45.8
			c82.4,0,67.4-127.7,67.4-127.7L2054.2-352.8"/>
		<path id="path4354" inkscape:connector-curvature="0" class="st8" d="M1377.6-490c228.6-333,389.7-321.3,389.7-321.3h63.7h-41.2
			H1773h-16.8l-104.9,0c0,0-161.1-11.6-389.7,321.3c0,0,78.7,154.8,168.7,135.5c0,0,19-18.6,35.6-24.1
			C1414.1-418.3,1377.6-490,1377.6-490"/>
		<path id="path4356" inkscape:connector-curvature="0" class="st8" d="M1639.9,137.2c-82.4,0-67.4-127.8-67.4-127.8l33.7-362.2
			c0-60.3-59.9-1.7-59.9-1.7c-19.8,4.2-39,0.1-57-9.1c0.5,3,0.8,6.5,0.8,10.7L1456.4,9.4c0,0-15,127.8,67.4,127.8
			c0,0,169.8,68.6,249.2,39.4c16.3,6,36.4,7.8,58,7C1747.1,180.5,1639.9,137.2,1639.9,137.2"/>
	</g>
	<g id="g4358">
		<path id="path4360" inkscape:connector-curvature="0" class="st9" d="M1281.7-511.8c-1.2-0.7-2.2-1.5-3.3-2.3
			c-5.6,7.8-11.2,15.8-16.9,24.1c0,0,78.7,154.8,168.7,135.6c0,0,9.4-9.3,20.8-16.6C1367-360.7,1293.8-489.3,1281.7-511.8"/>
		<path id="path4362" inkscape:connector-curvature="0" class="st9" d="M2264.1-511.8c1.1-0.7,2.2-1.5,3.3-2.3
			c5.5,7.8,11.1,15.8,16.9,24.1c0,0-78.7,154.8-168.7,135.6c0,0-9.4-9.3-20.9-16.6C2178.9-360.7,2252.1-489.3,2264.1-511.8"/>
		<path id="path4364" inkscape:connector-curvature="0" class="st9" d="M1773-759.4c-73.2,0-134.5-20.3-152.2-47.9
			c-3.3,5.2-5.3,10.6-5.3,16.2c0,35.4,70.6,64.1,157.5,64.1c87,0,157.5-28.7,157.5-64.1c0-5.6-1.9-11-5.2-16.2
			C1907.5-779.7,1846.2-759.4,1773-759.4"/>
		<path id="path4366" inkscape:connector-curvature="0" class="st9" d="M1773-810.7c73.2,0,134.5,9.1,152.2,21.5
			c3.3-2.4,5.2-4.7,5.2-7.2c0-16-70.5-28.8-157.5-28.8c-86.9,0-157.5,12.8-157.5,28.8c0,2.5,2,4.8,5.3,7.2
			C1638.4-801.6,1699.7-810.7,1773-810.7"/>
		<path id="path4368" inkscape:connector-curvature="0" class="st9" d="M1790.1-624.8c0,9.8-7.6,17.8-17.1,17.8
			c-9.5,0-17.1-8-17.1-17.8c0-9.7,7.6-17.7,17.1-17.7C1782.5-642.5,1790.1-634.5,1790.1-624.8"/>
		<path id="path4370" inkscape:connector-curvature="0" class="st9" d="M1790.1-558.7c0,9.8-7.6,17.8-17.1,17.8
			c-9.5,0-17.1-8-17.1-17.8c0-9.7,7.6-17.7,17.1-17.7C1782.5-576.4,1790.1-568.5,1790.1-558.7"/>
	</g>
</g>
</svg>
