<?xml version="1.0" encoding="UTF-8" standalone="no"?>
<svg
   xmlns:osb="http://www.openswatchbook.org/uri/2009/osb"
   xmlns:dc="http://purl.org/dc/elements/1.1/"
   xmlns:cc="http://creativecommons.org/ns#"
   xmlns:rdf="http://www.w3.org/1999/02/22-rdf-syntax-ns#"
   xmlns:svg="http://www.w3.org/2000/svg"
   xmlns="http://www.w3.org/2000/svg"
   xmlns:sodipodi="http://sodipodi.sourceforge.net/DTD/sodipodi-0.dtd"
   xmlns:inkscape="http://www.inkscape.org/namespaces/inkscape"
   viewBox="0 0 64 64"
   enable-background="new 0 0 64 64"
   id="svg4202"
   version="1.1"
   inkscape:version="0.91 r13725"
   sodipodi:docname="logo.svg">
  <metadata
     id="metadata4228">
    <rdf:RDF>
      <cc:Work
         rdf:about="">
        <dc:format>image/svg+xml</dc:format>
        <dc:type
           rdf:resource="http://purl.org/dc/dcmitype/StillImage" />
      </cc:Work>
    </rdf:RDF>
  </metadata>
  <defs
     id="defs4226">
    <linearGradient
       id="linearGradient5837"
       osb:paint="solid">
      <stop
         style="stop-color:#000000;stop-opacity:1;"
         offset="0"
         id="stop5839" />
    </linearGradient>
  </defs>
  <sodipodi:namedview
     pagecolor="#ffffff"
     bordercolor="#666666"
     borderopacity="1"
     objecttolerance="10"
     gridtolerance="10"
     guidetolerance="10"
     inkscape:pageopacity="0"
     inkscape:pageshadow="2"
     inkscape:window-width="1442"
     inkscape:window-height="826"
     id="namedview4224"
     showgrid="false"
     inkscape:zoom="10.041015"
     inkscape:cx="31.931295"
     inkscape:cy="40.895879"
     inkscape:window-x="0"
     inkscape:window-y="0"
     inkscape:window-maximized="0"
     inkscape:current-layer="svg4202" />
  <g
     fill="#fbed21"
     id="g4204">
    <path
       opacity=".62"
       d="m39.11 49.04c6.447-6.442 5.87-17.448-1.276-24.599-7.15-7.149-18.15-7.724-24.599-1.279-6.443 6.437-16.529 28.11-9.38 35.26 7.153 7.151 28.819-2.94 35.26-9.378"
       id="path4206" />
    <path
       opacity=".62"
       d="m40.988 42.46c5.354-5.35 4.876-14.492-1.06-20.432-5.94-5.938-15.08-6.415-20.432-1.062-5.348 5.346-13.729 23.349-7.791 29.28 5.941 5.941 23.941-2.441 29.28-7.789"
       id="path4208" />
  </g>
  <path
     fill="#d1d2d3"
     d="m27.819 36.04c6.091 6.091 11.02 12.517 14.546 18.616.492-3.073 2.555-7.911 8.781-18.06 12.366-20.16 13.64-34.568 12.288-35.914-.04-.043-.083-.085-.127-.126-.042-.044-.085-.087-.129-.127-1.344-1.357-15.746-.074-35.914 12.289-10.149 6.226-14.992 8.285-18.06 8.779 6.097 3.521 12.527 8.455 18.616 14.546"
     id="path4210"
     style="fill:#b2e198;fill-opacity:0.94117647" />
  <path
     fill="#86a7ac"
     d="m59.4.082c-5.729.485-17.372 3.584-32.14 12.637-10.149 6.226-14.992 8.285-18.06 8.779 6.097 3.521 12.527 8.456 18.616 14.546.256.256.492.516.75.771-1.875-17.11 16.966-28.459 30.833-36.733"
     id="path4212"
     style="fill:#04a171;fill-opacity:0.43127963" />
  <path
     fill="#de374b"
     d="m33.577 52.628c3.112 3.114 5.635 6.396 7.436 9.516.249-1.572 1.303-4.046 4.484-9.234 6.32-10.305 6.977-17.667 6.281-18.355-.02-.021-.046-.042-.065-.063s-.042-.046-.065-.065c-.687-.692-8.05-.037-18.354 6.281-5.187 3.182-7.663 4.235-9.236 4.486 3.121 1.797 6.407 4.322 9.519 7.434"
     id="path4214"
     style="fill:#66585c;fill-opacity:1" />
  <path
     fill="#c5344d"
     d="m41.699 44.09c-2.653 3.278-4.675 7.455-5.208 11.729 1.787 2.115 3.326 4.255 4.521 6.323.249-1.572 1.303-4.046 4.484-9.234 5.146-8.39 6.534-14.828 6.5-17.302-3.415 2.852-7.447 4.955-10.297 8.484"
     id="path4216"
     style="fill:#584a4e;fill-opacity:0.94117647" />
  <path
     fill="#de374b"
     d="m9.52 28.46c3.112 3.114 5.634 6.397 7.435 9.516.249-1.572 1.302-4.046 4.487-9.234 6.318-10.305 6.971-17.667 6.279-18.356-.02-.022-.044-.042-.066-.063-.024-.022-.042-.046-.065-.065-.686-.693-8.05-.037-18.354 6.281-5.186 3.182-7.662 4.235-9.236 4.486 3.121 1.799 6.408 4.324 9.52 7.435"
     id="path4218"
     style="fill:#66585c;fill-opacity:1" />
  <path
     fill="#c5344d"
     d="m12.844 21.432c5.595-2.679 11.441-5.706 14.918-10.973-.016-.022-.026-.057-.026-.057-.035-.037-.059-.057-.081-.079-.024-.022-.042-.046-.065-.065-.686-.693-8.05-.037-18.354 6.281-5.186 3.182-7.662 4.235-9.236 4.486 2.104 1.213 4.279 2.778 6.427 4.607 1.902-1.645 4.03-3.057 6.417-4.2"
     id="path4220"
     style="fill:#584a4e;fill-opacity:1" />
  <path
     fill="#243438"
     d="m53.03 11.06c1.724 1.486 3.138 3.082 4.179 4.618.071-.815.52-2.129 1.965-4.916 2.869-5.534 2.928-9.347 2.546-9.673-.009-.013-.022-.024-.035-.03-.009-.011-.024-.024-.035-.033-.38-.33-4.14.28-9.21 3.912-2.546 1.832-3.78 2.463-4.578 2.653 1.667.809 3.454 1.985 5.168 3.469"
     id="path4222" />
  <g
     id="g4344"
     style="fill-rule:evenodd;stroke:none;stroke-opacity:1"
     transform="matrix(0.30468604,0.25916484,-0.25916484,0.30468604,39.794961,4.1668297)">
    <path
       id="path4346"
       d="m 39.493,0.863 -6.545,0 -1.049,0 -1.049,0 -6.545,0 c 0,0 -10.05,-0.724 -24.305,20.04 0,0 4.907,9.657 10.518,8.451 0,0 3.736,-3.656 3.736,0.104 l -2.098,22.589 c 0,0 -0.938,7.97 4.201,7.97 0,0 10.587,4.279 15.542,2.455 4.957,1.824 15.537,-2.455 15.537,-2.455 5.145,0 4.207,-7.97 4.207,-7.97 L 49.544,29.458 c 0,-3.76 3.736,-0.104 3.736,-0.104 5.611,1.206 10.518,-8.451 10.518,-8.451 C 49.544,0.135 39.493,0.863 39.493,0.863"
       inkscape:connector-curvature="0"
       style="fill:#089083;stroke:none;stroke-opacity:1" />
    <g
       id="g4348"
       style="fill:#02786a;stroke:none;stroke-opacity:1">
      <path
         id="path4350"
         d="m 39.493,0.863 -2.085,0 c 1.663,0.055 11.126,1.226 24.05,20.04 0,0 -3.65,7.172 -8.249,8.378 0.043,0.04 0.076,0.073 0.076,0.073 5.611,1.206 10.518,-8.451 10.518,-8.451 C 49.549,0.135 39.498,0.863 39.498,0.863"
         inkscape:connector-curvature="0"
         style="stroke:none;stroke-opacity:1" />
      <path
         id="path4352"
         d="m 49.44,29.461 c 0,-0.479 0.059,-0.833 0.165,-1.09 -1.093,-0.728 -2.511,-1.224 -2.511,1.09 l 2.103,22.593 c 0,0 0.938,7.966 -4.201,7.966 0,0 -6.146,2.479 -11.262,2.855 5.339,0.482 13.604,-2.855 13.604,-2.855 5.139,0 4.205,-7.966 4.205,-7.966 L 49.44,29.461"
         inkscape:connector-curvature="0"
         style="stroke:none;stroke-opacity:1" />
      <path
         id="path4354"
         d="M 7.239,20.907 C 21.493,0.139 31.544,0.867 31.544,0.867 l 3.974,0 -2.569,0 -1.049,0 -1.05,0 -6.545,0 c 0,0 -10.05,-0.724 -24.305,20.04 0,0 4.907,9.657 10.518,8.451 0,0 1.187,-1.161 2.22,-1.502 C 9.518,25.38 7.239,20.907 7.239,20.907"
         inkscape:connector-curvature="0"
         style="stroke:none;stroke-opacity:1" />
      <path
         id="path4356"
         d="m 23.597,60.02 c -5.14,0 -4.203,-7.97 -4.203,-7.97 l 2.099,-22.589 c 0,-3.76 -3.736,-0.104 -3.736,-0.104 -1.233,0.265 -2.434,0.004 -3.556,-0.565 0.033,0.19 0.053,0.408 0.053,0.669 L 12.156,52.05 c 0,0 -0.938,7.97 4.201,7.97 0,0 10.587,4.279 15.542,2.455 1.016,0.372 2.269,0.486 3.619,0.436 C 30.285,62.722 23.597,60.02 23.597,60.02"
         inkscape:connector-curvature="0"
         style="stroke:none;stroke-opacity:1" />
    </g>
    <g
       id="g4358"
       style="fill:#34484c;stroke:none;stroke-opacity:1">
      <path
         id="path4360"
         d="M 1.263,19.547 C 1.19,19.502 1.126,19.451 1.055,19.406 0.704,19.892 0.355,20.39 0,20.906 c 0,0 4.907,9.657 10.518,8.455 0,0 0.588,-0.579 1.296,-1.034 -5.236,0.642 -9.798,-7.379 -10.551,-8.78"
         inkscape:connector-curvature="0"
         style="stroke:none;stroke-opacity:1" />
      <path
         id="path4362"
         d="m 62.53,19.547 c 0.066,-0.045 0.138,-0.096 0.208,-0.141 0.345,0.486 0.694,0.984 1.055,1.5 0,0 -4.906,9.657 -10.518,8.455 0,0 -0.586,-0.579 -1.302,-1.034 5.243,0.642 9.804,-7.379 10.557,-8.78"
         inkscape:connector-curvature="0"
         style="stroke:none;stroke-opacity:1" />
      <path
         id="path4364"
         d="m 31.899,4.107 c -4.567,0 -8.39,-1.269 -9.494,-2.987 -0.204,0.326 -0.33,0.661 -0.33,1.01 0,2.207 4.401,3.995 9.824,3.995 5.423,0 9.82,-1.789 9.82,-3.995 0,-0.349 -0.121,-0.685 -0.325,-1.01 -1.105,1.718 -4.927,2.987 -9.495,2.987"
         inkscape:connector-curvature="0"
         style="stroke:none;stroke-opacity:1" />
      <path
         id="path4366"
         d="m 31.899,0.904 c 4.568,0 8.39,0.566 9.495,1.339 C 41.598,2.096 41.719,1.947 41.719,1.794 41.719,0.798 37.323,0 31.899,0 c -5.422,0 -9.824,0.798 -9.824,1.794 0,0.153 0.126,0.302 0.33,0.449 1.104,-0.772 4.927,-1.339 9.494,-1.339"
         inkscape:connector-curvature="0"
         style="stroke:none;stroke-opacity:1" />
      <path
         id="path4368"
         d="m 32.968,12.499 c 0,0.614 -0.475,1.11 -1.069,1.11 -0.592,0 -1.069,-0.496 -1.069,-1.11 0,-0.606 0.477,-1.104 1.069,-1.104 0.594,0 1.069,0.498 1.069,1.104"
         inkscape:connector-curvature="0"
         style="stroke:none;stroke-opacity:1" />
      <path
         id="path4370"
         d="m 32.968,16.621 c 0,0.612 -0.475,1.108 -1.069,1.108 -0.592,0 -1.069,-0.496 -1.069,-1.108 0,-0.608 0.477,-1.106 1.069,-1.106 0.594,0 1.069,0.498 1.069,1.106"
         inkscape:connector-curvature="0"
         style="stroke:none;stroke-opacity:1" />
    </g>
  </g>
</svg>
