<?xml version="1.0" encoding="UTF-8" standalone="no"?>
<svg
   xmlns:dc="http://purl.org/dc/elements/1.1/"
   xmlns:cc="http://creativecommons.org/ns#"
   xmlns:rdf="http://www.w3.org/1999/02/22-rdf-syntax-ns#"
   xmlns:svg="http://www.w3.org/2000/svg"
   xmlns="http://www.w3.org/2000/svg"
   xmlns:sodipodi="http://sodipodi.sourceforge.net/DTD/sodipodi-0.dtd"
   xmlns:inkscape="http://www.inkscape.org/namespaces/inkscape"
   viewBox="0 0 64 64"
   enable-background="new 0 0 64 64"
   id="svg2"
   version="1.1"
   inkscape:version="0.91 r13725"
   sodipodi:docname="shirt emoji.svg">
  <metadata
     id="metadata36">
    <rdf:RDF>
      <cc:Work
         rdf:about="">
        <dc:format>image/svg+xml</dc:format>
        <dc:type
           rdf:resource="http://purl.org/dc/dcmitype/StillImage" />
      </cc:Work>
    </rdf:RDF>
  </metadata>
  <defs
     id="defs34" />
  <sodipodi:namedview
     pagecolor="#ffffff"
     bordercolor="#666666"
     borderopacity="1"
     objecttolerance="10"
     gridtolerance="10"
     guidetolerance="10"
     inkscape:pageopacity="0"
     inkscape:pageshadow="2"
     inkscape:window-width="1105"
     inkscape:window-height="727"
     id="namedview32"
     showgrid="false"
     inkscape:zoom="3.6875"
     inkscape:cx="-15.186441"
     inkscape:cy="32"
     inkscape:window-x="0"
     inkscape:window-y="0"
     inkscape:window-maximized="0"
     inkscape:current-layer="g4" />
  <g
     fill-rule="evenodd"
     id="g4">
    <path
       fill="#089083"
       d="m39.493.863h-6.545-1.049-1.049-6.545c0 0-10.05-.724-24.305 20.04 0 0 4.907 9.657 10.518 8.451 0 0 3.736-3.656 3.736.104l-2.098 22.589c0 0-.938 7.97 4.201 7.97 0 0 10.587 4.279 15.542 2.455 4.957 1.824 15.537-2.455 15.537-2.455 5.145 0 4.207-7.97 4.207-7.97l-2.099-22.589c0-3.76 3.736-.104 3.736-.104 5.611 1.206 10.518-8.451 10.518-8.451-14.254-20.768-24.305-20.04-24.305-20.04"
       id="path6"
       style="fill:#bb8500;fill-opacity:1" />
    <g
       fill="#02786a"
       id="g8"
       style="opacity:1;fill:#b37f33;fill-opacity:1">
      <path
         d="m39.493.863h-2.085c1.663.055 11.126 1.226 24.05 20.04 0 0-3.65 7.172-8.249 8.378.043.04.076.073.076.073 5.611 1.206 10.518-8.451 10.518-8.451-14.254-20.768-24.305-20.04-24.305-20.04"
         id="path10"
         style="fill:#b37f33;fill-opacity:1" />
      <path
         d="m49.44 29.461c0-.479.059-.833.165-1.09-1.093-.728-2.511-1.224-2.511 1.09l2.103 22.593c0 0 .938 7.966-4.201 7.966 0 0-6.146 2.479-11.262 2.855 5.339.482 13.604-2.855 13.604-2.855 5.139 0 4.205-7.966 4.205-7.966l-2.103-22.593"
         id="path12"
         style="fill:#b37f33;fill-opacity:1" />
      <path
         d="m7.239 20.907c14.254-20.768 24.305-20.04 24.305-20.04h3.974-2.569-1.049-1.05-6.545c0 0-10.05-.724-24.305 20.04 0 0 4.907 9.657 10.518 8.451 0 0 1.187-1.161 2.22-1.502-3.22-2.476-5.499-6.949-5.499-6.949"
         id="path14"
         style="fill:#b37f33;fill-opacity:1" />
      <path
         d="m23.597 60.02c-5.14 0-4.203-7.97-4.203-7.97l2.099-22.589c0-3.76-3.736-.104-3.736-.104-1.233.265-2.434.004-3.556-.565.033.19.053.408.053.669l-2.098 22.589c0 0-.938 7.97 4.201 7.97 0 0 10.587 4.279 15.542 2.455 1.016.372 2.269.486 3.619.436-5.233-.189-11.921-2.891-11.921-2.891"
         id="path16"
         style="fill:#b37f33;fill-opacity:1" />
    </g>
    <g
       fill="#34484c"
       id="g18"
       style="fill:#a72626;fill-opacity:1">
      <path
         d="m1.263 19.547c-.073-.045-.137-.096-.208-.141-.351.486-.7.984-1.055 1.5 0 0 4.907 9.657 10.518 8.455 0 0 .588-.579 1.296-1.034-5.236.642-9.798-7.379-10.551-8.78"
         id="path20"
         style="fill:#a72626;fill-opacity:1" />
      <path
         d="m62.53 19.547c.066-.045.138-.096.208-.141.345.486.694.984 1.055 1.5 0 0-4.906 9.657-10.518 8.455 0 0-.586-.579-1.302-1.034 5.243.642 9.804-7.379 10.557-8.78"
         id="path22"
         style="fill:#a72626;fill-opacity:1" />
      <path
         d="m31.899 4.107c-4.567 0-8.39-1.269-9.494-2.987-.204.326-.33.661-.33 1.01 0 2.207 4.401 3.995 9.824 3.995 5.423 0 9.82-1.789 9.82-3.995 0-.349-.121-.685-.325-1.01-1.105 1.718-4.927 2.987-9.495 2.987"
         id="path24"
         style="fill:#a72626;fill-opacity:1" />
      <path
         d="m31.899.904c4.568 0 8.39.566 9.495 1.339.204-.147.325-.296.325-.449 0-.996-4.396-1.794-9.82-1.794-5.422 0-9.824.798-9.824 1.794 0 .153.126.302.33.449 1.104-.772 4.927-1.339 9.494-1.339"
         id="path26"
         style="fill:#a72626;fill-opacity:1" />
      <path
         d="m32.968 12.499c0 .614-.475 1.11-1.069 1.11-.592 0-1.069-.496-1.069-1.11 0-.606.477-1.104 1.069-1.104.594 0 1.069.498 1.069 1.104"
         id="path28"
         style="fill:#a72626;fill-opacity:1" />
      <path
         d="m32.968 16.621c0 .612-.475 1.108-1.069 1.108-.592 0-1.069-.496-1.069-1.108 0-.608.477-1.106 1.069-1.106.594 0 1.069.498 1.069 1.106"
         id="path30"
         style="fill:#a72626;fill-opacity:1" />
    </g>
  </g>
</svg>
